<?xml version="1.0" standalone="no"?>
<!DOCTYPE svg PUBLIC "-//W3C//DTD SVG 20010904//EN"
 "http://www.w3.org/TR/2001/REC-SVG-20010904/DTD/svg10.dtd">
<svg version="1.0" xmlns="http://www.w3.org/2000/svg"
 width="90.000000pt" height="90.000000pt" viewBox="0 0 90.000000 90.000000"
 preserveAspectRatio="xMidYMid meet">
<metadata>
Created by potrace 1.11, written by Peter Selinger 2001-2013
</metadata>
<g transform="translate(0.000000,90.000000) scale(0.100000,-0.100000)"
fill="#000000" stroke="none">
<path d="M423 798 c-4 -7 -8 -26 -8 -43 0 -23 -5 -30 -20 -30 -36 -1 -43 -13
-40 -65 3 -46 1 -51 -21 -56 -30 -8 -33 -5 -36 29 -1 15 -5 27 -8 28 -36 6
-55 3 -78 -9 -15 -8 -44 -16 -66 -18 -48 -5 -56 -10 -56 -35 0 -12 7 -19 20
-20 11 -1 25 -3 30 -4 6 -1 17 -3 25 -4 11 -1 15 -13 15 -44 l0 -43 258 2
c141 1 260 2 265 3 4 0 7 18 7 39 0 28 8 44 31 67 55 54 12 91 -45 38 -28 -27
-37 -30 -96 -29 l-65 1 -1 53 c-1 59 -4 64 -36 66 -19 1 -23 7 -23 31 -1 36
-11 55 -30 55 -8 0 -17 -6 -22 -12z"/>
<path d="M70 416 c-17 -17 -11 -36 14 -45 13 -6 37 -34 55 -65 28 -50 34 -56
64 -56 19 0 55 6 80 14 39 12 52 12 84 0 50 -17 101 -17 152 1 36 12 46 12 82
0 23 -8 59 -15 80 -15 36 0 40 3 71 60 21 38 39 60 51 60 22 0 34 27 18 43
-15 15 -736 18 -751 3z"/>
<path d="M65 200 c-9 -29 0 -38 57 -55 64 -19 114 -19 165 -1 25 9 45 11 55 5
31 -17 131 -21 178 -7 36 11 52 11 80 1 49 -17 109 -16 168 3 54 18 71 39 50
60 -11 10 -24 10 -71 -3 -50 -14 -66 -15 -110 -4 -67 16 -81 16 -149 0 -50
-11 -64 -11 -111 4 -49 16 -58 16 -97 2 -54 -19 -96 -19 -150 0 -54 19 -57 19
-65 -5z"/>
</g>
</svg>
